<svg xmlns="http://www.w3.org/2000/svg" viewBox="0 0 107.33 138.06"><defs><style>.cls-1{fill:#1a1a1a;}.cls-2{fill:#fff;}</style></defs><title>pin_1</title><g id="Layer_2" data-name="Layer 2"><g id="Слой_1" data-name="Слой 1"><path class="cls-1" d="M107.29,51.48a53.5,53.5,0,0,1-5.55,26c-.76,1.42-1.54,2.82-2.34,4.22A244.13,244.13,0,0,1,56.58,137a4,4,0,0,1-5.48,0A245.12,245.12,0,0,1,10.33,85.32q-3.47-5.88-6.61-12s0,0,0,0A53.67,53.67,0,1,1,107.29,51.48Z"/><path class="cls-2" d="M90.11,42.24c0,.34,0,.68,0,1a26.65,26.65,0,0,1-8,18.36L61.78,82a3.9,3.9,0,0,1-5.11.42,3.82,3.82,0,0,1-.38-5.73l6.55-6.55a28.06,28.06,0,0,1-4.71-.4L43.6,84.28a3.9,3.9,0,0,1-5.11.42A3.82,3.82,0,0,1,38.11,79l12-12a26.21,26.21,0,0,1-3.81-2.44l-22,22a3.91,3.91,0,0,1-5.11.43,3.82,3.82,0,0,1-.38-5.73L40.93,59.11a26.17,26.17,0,0,1-2.2-3.48L26.55,67.8a3.91,3.91,0,0,1-5.11.43,3.82,3.82,0,0,1-.38-5.73L36,47.59a28.06,28.06,0,0,1-.4-4.71l-6.18,6.17a3.91,3.91,0,0,1-5.11.43,3.82,3.82,0,0,1-.38-5.73L44.09,23.57a26.59,26.59,0,0,1,18.36-8h1A27.41,27.41,0,0,1,90.11,42.24Z"/><path class="cls-1" d="M69.74,25.38a1,1,0,0,0-1.92-.12c0,.17-.22,4,3.66,7.75l-9.62,9.31c-1.1-.74-2.86-2.17-3.1-3.52a1.66,1.66,0,0,1,.43-1.45,3.68,3.68,0,0,0,.89-3.13c-.52-2.6-3.8-4.39-4.17-4.58a1,1,0,0,0-1.3.4,1,1,0,0,0,.41,1.3c.78.41,2.89,1.81,3.18,3.25a1.76,1.76,0,0,1-.48,1.53,3.56,3.56,0,0,0-.85,3,6.09,6.09,0,0,0,1.84,3.1A14.42,14.42,0,0,0,60.6,43.8,5.5,5.5,0,0,0,60,47.33a7.37,7.37,0,0,0-5.57,1.42,5.23,5.23,0,0,0-1.52,1.75,6.14,6.14,0,0,1-2.19-3.39,2.43,2.43,0,0,1,.62-1.87,3.86,3.86,0,0,0,.93-3.18c-.45-2.65-3.54-4.58-3.89-4.79a1,1,0,1,0-1,1.65c.74.45,2.73,1.94,3,3.46A1.92,1.92,0,0,1,49.83,44a4.29,4.29,0,0,0-1,3.32,7.32,7.32,0,0,0,2.27,4.09,8.28,8.28,0,0,0,.84.76,1,1,0,0,0,.6.2,2.16,2.16,0,0,0,0,.35l-4.69,4.69A6.78,6.78,0,0,1,44,54.82a5.16,5.16,0,0,1-.37-4.23l.18-.64-.54-.4a5.2,5.2,0,0,1-2-3.59c0-1.45,1-2.92,2.87-4.38l.55-.42-.23-.66A11.84,11.84,0,0,1,45,32.08c1.44-2.74,4.21-4.7,8.26-5.83l.33-.09.19-.28c.18-.25,4-5.52,8.46-3.72a7.3,7.3,0,0,0-1.62,4.68c0,2.95,1.78,5.62,5.14,8a1,1,0,1,0,1.1-1.58c-2.82-2-4.28-4.13-4.32-6.42a5.78,5.78,0,0,1,4.91-5.64c6.2-1.06,9.23,4,10.15,5.92l-4.75,4.59C69.62,28.61,69.73,25.53,69.74,25.38Z"/><path class="cls-1" d="M82.72,41.16a7.29,7.29,0,0,1,1.44,5c-.26,1.93-1.51,3.7-3.71,5.27l-.3.22-.08.37c-.1.49-2.61,11.87-14.28,10.17a5.33,5.33,0,0,0,0-2C65,55.89,59.94,53.13,59.72,53a1,1,0,0,0-.91,1.7s4.49,2.44,5.09,5.88A3.66,3.66,0,0,1,61,64.83c-1.37.26-2.58-.32-3.69-1.77l-.46-.59-.7.3a5.07,5.07,0,0,1-3.79,0,6.4,6.4,0,0,1-3.13-4l4.05-4.06a9.5,9.5,0,0,0,1.37,1.67,17.29,17.29,0,0,0,2.15,1.82,1,1,0,1,0,1.13-1.55C55,54.48,54.41,53,54.4,52.18a2.42,2.42,0,0,1,1.17-1.9,5.61,5.61,0,0,1,6.08-.38,4.28,4.28,0,0,1,.42.26c3.5,2.36,6.07.92,6.4.72a2.57,2.57,0,0,1,2.19-.36A4.4,4.4,0,0,1,72.58,52a8.32,8.32,0,0,1,1,1.68,1,1,0,1,0,1.76-.76c-.06-.14-1.48-3.4-4.12-4.25a4.48,4.48,0,0,0-3.81.56c-.07,0-1.74,1-4.29-.68q-.24-.16-.48-.3c-1.66-1.39-.46-3.46-.2-3.87h0l3-2.88a7.57,7.57,0,0,0,.76.86,9.11,9.11,0,0,0,6,2.67h0c2.22,0,5.83.47,6.56,1.5a1,1,0,0,0,1.34.22,1,1,0,0,0,.23-1.34c-1.56-2.17-7-2.3-8.1-2.3a7.18,7.18,0,0,1-5.48-3l6.07-5.87c3.4,3,3.32,5.34,3.32,5.35a.94.94,0,0,0,.28.77,1,1,0,0,0,.59.28,1,1,0,0,0,1-.88c0-.13.24-3.19-3.84-6.86l4.57-4.42c1.12.41,4.91,2.06,5.52,5.91.67,4.25-1.25,5.18-1.31,5.21l-1.21.49Z"/></g></g></svg>